<svg xmlns="http://www.w3.org/2000/svg" xmlns:xlink="http://www.w3.org/1999/xlink" width="300" zoomAndPan="magnify" viewBox="0 0 224.87999 74.999997" height="100" preserveAspectRatio="xMidYMid meet" version="1.0"><defs><g></g><clipPath id="da0e344aee"><path d="M 9.101562 23 L 32 23 L 32 66.476562 L 9.101562 66.476562 Z M 9.101562 23 " clip-rule="nonzero"></path></clipPath><clipPath id="b76a16faac"><path d="M 35 23 L 57.824219 23 L 57.824219 66.476562 L 35 66.476562 Z M 35 23 " clip-rule="nonzero"></path></clipPath><clipPath id="dc50751555"><path d="M 28 8.757812 L 39 8.757812 L 39 15 L 28 15 Z M 28 8.757812 " clip-rule="nonzero"></path></clipPath></defs><g clip-path="url('#da0e344aee')"><path fill="#794186" d="M 9.121094 53.480469 C 16.59375 57.8125 24.035156 62.144531 31.476562 66.476562 L 31.476562 47.421875 L 22.996094 42.5 L 25.941406 50.648438 L 25.941406 56.835938 L 14.683594 50.289062 L 14.683594 33.023438 L 31.472656 42.792969 L 31.472656 36.378906 L 9.121094 23.382812 Z M 9.121094 53.480469 " fill-opacity="1" fill-rule="nonzero"></path></g><g clip-path="url('#b76a16faac')"><path fill="#794186" d="M 35.453125 36.378906 L 35.453125 42.792969 L 52.277344 33.023438 L 52.277344 50.289062 L 40.988281 56.835938 L 40.988281 50.648438 L 43.933594 42.5 L 35.453125 47.421875 L 35.453125 66.476562 L 57.808594 53.480469 L 57.808594 23.382812 Z M 35.453125 36.378906 " fill-opacity="1" fill-rule="nonzero"></path></g><path fill="#794186" d="M 48.71875 17.617188 L 33.480469 26.476562 L 18.242188 17.617188 L 12.710938 20.839844 L 33.480469 32.890625 L 54.25 20.839844 Z M 48.71875 17.617188 " fill-opacity="1" fill-rule="nonzero"></path><g clip-path="url('#dc50751555')"><path fill="#794186" d="M 38.398438 11.625 L 33.480469 8.757812 L 28.5625 11.625 L 33.480469 14.488281 Z M 38.398438 11.625 " fill-opacity="1" fill-rule="nonzero"></path></g><path fill="#794186" d="M 44.738281 15.304688 L 42.378906 13.9375 L 33.480469 19.113281 L 24.582031 13.9375 L 22.222656 15.304688 L 33.480469 21.851562 Z M 44.738281 15.304688 " fill-opacity="1" fill-rule="nonzero"></path><g fill="#03466e" fill-opacity="1"><g transform="translate(74.733422, 30.581891)"><g><path d="M 5.15625 -17.140625 L 5.15625 0 L 1.25 0 L 1.25 -17.140625 Z M 5.15625 -17.140625 "></path></g></g></g><g fill="#03466e" fill-opacity="1"><g transform="translate(81.652837, 30.581891)"><g><path d="M 5.15625 -10.640625 L 5.15625 0 L 1.25 0 L 1.25 -17.140625 L 5.15625 -17.140625 L 11.96875 -6.5 L 12.015625 -6.5 L 12.015625 -17.140625 L 15.921875 -17.140625 L 15.921875 0 L 12.015625 0 L 5.203125 -10.640625 Z M 5.15625 -10.640625 "></path></g></g></g><g fill="#03466e" fill-opacity="1"><g transform="translate(99.335262, 30.581891)"><g><path d="M 6.609375 0 L -0.578125 -17.140625 L 3.828125 -17.140625 L 8.140625 -5.875 L 12.46875 -17.140625 L 16.875 -17.140625 L 9.6875 0 Z M 6.609375 0 "></path></g></g></g><g fill="#03466e" fill-opacity="1"><g transform="translate(116.145003, 30.581891)"><g><path d="M 11.0625 -17.140625 L 11.0625 -13.71875 L 5.15625 -13.71875 L 5.15625 -10.3125 L 10.8125 -10.3125 L 10.8125 -6.875 L 5.15625 -6.875 L 5.15625 -3.421875 L 11.0625 -3.421875 L 11.0625 0 L 1.25 0 L 1.25 -17.140625 Z M 11.0625 -17.140625 "></path></g></g></g><g fill="#03466e" fill-opacity="1"><g transform="translate(128.716032, 30.581891)"><g><path d="M 7.5625 -17.453125 C 8.488281 -17.453125 9.394531 -17.316406 10.28125 -17.046875 C 11.164062 -16.773438 11.828125 -16.507812 12.265625 -16.25 L 12.890625 -15.828125 L 11.3125 -12.71875 C 11.1875 -12.800781 11.007812 -12.90625 10.78125 -13.03125 C 10.5625 -13.164062 10.144531 -13.34375 9.53125 -13.5625 C 8.925781 -13.789062 8.359375 -13.90625 7.828125 -13.90625 C 7.179688 -13.90625 6.679688 -13.765625 6.328125 -13.484375 C 5.972656 -13.210938 5.796875 -12.835938 5.796875 -12.359375 C 5.796875 -12.128906 5.878906 -11.910156 6.046875 -11.703125 C 6.210938 -11.503906 6.492188 -11.289062 6.890625 -11.0625 C 7.296875 -10.832031 7.648438 -10.648438 7.953125 -10.515625 C 8.265625 -10.378906 8.738281 -10.171875 9.375 -9.890625 C 10.476562 -9.421875 11.421875 -8.78125 12.203125 -7.96875 C 12.992188 -7.15625 13.390625 -6.238281 13.390625 -5.21875 C 13.390625 -4.226562 13.210938 -3.363281 12.859375 -2.625 C 12.503906 -1.894531 12.015625 -1.320312 11.390625 -0.90625 C 10.773438 -0.5 10.09375 -0.195312 9.34375 0 C 8.601562 0.207031 7.796875 0.3125 6.921875 0.3125 C 6.171875 0.3125 5.4375 0.234375 4.71875 0.078125 C 4 -0.0664062 3.394531 -0.253906 2.90625 -0.484375 C 2.425781 -0.710938 1.988281 -0.9375 1.59375 -1.15625 C 1.207031 -1.382812 0.925781 -1.570312 0.75 -1.71875 L 0.484375 -1.953125 L 2.4375 -5.234375 C 2.601562 -5.097656 2.828125 -4.921875 3.109375 -4.703125 C 3.398438 -4.492188 3.914062 -4.207031 4.65625 -3.84375 C 5.40625 -3.476562 6.0625 -3.296875 6.625 -3.296875 C 8.28125 -3.296875 9.109375 -3.859375 9.109375 -4.984375 C 9.109375 -5.222656 9.046875 -5.441406 8.921875 -5.640625 C 8.804688 -5.835938 8.597656 -6.035156 8.296875 -6.234375 C 8.003906 -6.441406 7.742188 -6.601562 7.515625 -6.71875 C 7.285156 -6.84375 6.910156 -7.023438 6.390625 -7.265625 C 5.867188 -7.503906 5.484375 -7.6875 5.234375 -7.8125 C 4.191406 -8.320312 3.382812 -8.960938 2.8125 -9.734375 C 2.25 -10.503906 1.96875 -11.332031 1.96875 -12.21875 C 1.96875 -13.757812 2.535156 -15.015625 3.671875 -15.984375 C 4.804688 -16.960938 6.101562 -17.453125 7.5625 -17.453125 Z M 7.5625 -17.453125 "></path></g></g></g><g fill="#03466e" fill-opacity="1"><g transform="translate(143.198645, 30.581891)"><g><path d="M 0.171875 -13.71875 L 0.171875 -17.140625 L 12.21875 -17.140625 L 12.21875 -13.71875 L 8.140625 -13.71875 L 8.140625 0 L 4.234375 0 L 4.234375 -13.71875 Z M 0.171875 -13.71875 "></path></g></g></g><g fill="#66a6cd" fill-opacity="1"><g transform="translate(156.100152, 30.581891)"><g><path d="M 15.421875 0 L 14.609375 -10.15625 L 14.5 -10.15625 L 11 -0.109375 L 8.671875 -0.109375 L 5.15625 -10.15625 L 5.046875 -10.15625 L 4.234375 0 L 0.328125 0 L 1.875 -17.140625 L 6.03125 -17.140625 L 9.828125 -7.25 L 13.625 -17.140625 L 17.78125 -17.140625 L 19.328125 0 Z M 15.421875 0 "></path></g></g></g><g fill="#66a6cd" fill-opacity="1"><g transform="translate(176.275933, 30.581891)"><g><path d="M 11.0625 -17.140625 L 11.0625 -13.71875 L 5.15625 -13.71875 L 5.15625 -10.3125 L 10.8125 -10.3125 L 10.8125 -6.875 L 5.15625 -6.875 L 5.15625 -3.421875 L 11.0625 -3.421875 L 11.0625 0 L 1.25 0 L 1.25 -17.140625 Z M 11.0625 -17.140625 "></path></g></g></g><g fill="#66a6cd" fill-opacity="1"><g transform="translate(188.846962, 30.581891)"><g><path d="M 5.15625 -10.640625 L 5.15625 0 L 1.25 0 L 1.25 -17.140625 L 5.15625 -17.140625 L 11.96875 -6.5 L 12.015625 -6.5 L 12.015625 -17.140625 L 15.921875 -17.140625 L 15.921875 0 L 12.015625 0 L 5.203125 -10.640625 Z M 5.15625 -10.640625 "></path></g></g></g><g fill="#66a6cd" fill-opacity="1"><g transform="translate(206.529386, 30.581891)"><g><path d="M 0.171875 -13.71875 L 0.171875 -17.140625 L 12.21875 -17.140625 L 12.21875 -13.71875 L 8.140625 -13.71875 L 8.140625 0 L 4.234375 0 L 4.234375 -13.71875 Z M 0.171875 -13.71875 "></path></g></g></g><g fill="#d1a3a3" fill-opacity="1"><g transform="translate(121.384305, 59.066689)"><g><path d="M 1.25 -17.140625 L 6.21875 -17.140625 C 8.59375 -17.140625 10.625 -16.328125 12.3125 -14.703125 C 14.007812 -13.078125 14.859375 -11.035156 14.859375 -8.578125 C 14.859375 -6.117188 14.015625 -4.070312 12.328125 -2.4375 C 10.648438 -0.8125 8.613281 0 6.21875 0 L 1.25 0 Z M 5.15625 -3.484375 L 5.75 -3.484375 C 7.175781 -3.484375 8.34375 -3.960938 9.25 -4.921875 C 10.164062 -5.890625 10.628906 -7.101562 10.640625 -8.5625 C 10.640625 -10.019531 10.1875 -11.234375 9.28125 -12.203125 C 8.375 -13.171875 7.195312 -13.65625 5.75 -13.65625 L 5.15625 -13.65625 Z M 5.15625 -3.484375 "></path></g></g></g><g fill="#d1a3a3" fill-opacity="1"><g transform="translate(137.238265, 59.066689)"><g><path d="M 9.953125 -17.140625 L 16.875 0 L 12.671875 0 L 11.40625 -3.421875 L 4.890625 -3.421875 L 3.609375 0 L -0.578125 0 L 6.34375 -17.140625 Z M 10.078125 -6.859375 L 8.171875 -11.84375 L 8.125 -11.84375 L 6.21875 -6.859375 Z M 10.078125 -6.859375 "></path></g></g></g><g fill="#d1a3a3" fill-opacity="1"><g transform="translate(154.048006, 59.066689)"><g><path d="M 0.484375 -8.578125 C 0.484375 -11.054688 1.328125 -13.15625 3.015625 -14.875 C 4.703125 -16.59375 6.738281 -17.453125 9.125 -17.453125 C 11.519531 -17.453125 13.554688 -16.597656 15.234375 -14.890625 C 16.910156 -13.179688 17.75 -11.078125 17.75 -8.578125 C 17.75 -6.078125 16.921875 -3.96875 15.265625 -2.25 C 13.617188 -0.539062 11.570312 0.3125 9.125 0.3125 C 6.613281 0.3125 4.546875 -0.535156 2.921875 -2.234375 C 1.296875 -3.929688 0.484375 -6.046875 0.484375 -8.578125 Z M 4.703125 -8.578125 C 4.703125 -7.679688 4.835938 -6.863281 5.109375 -6.125 C 5.390625 -5.382812 5.875 -4.753906 6.5625 -4.234375 C 7.257812 -3.722656 8.113281 -3.46875 9.125 -3.46875 C 10.582031 -3.46875 11.679688 -3.96875 12.421875 -4.96875 C 13.160156 -5.96875 13.53125 -7.171875 13.53125 -8.578125 C 13.53125 -9.984375 13.148438 -11.1875 12.390625 -12.1875 C 11.640625 -13.1875 10.550781 -13.6875 9.125 -13.6875 C 7.707031 -13.6875 6.613281 -13.1875 5.84375 -12.1875 C 5.082031 -11.1875 4.703125 -9.984375 4.703125 -8.578125 Z M 4.703125 -8.578125 "></path></g></g></g></svg>